<svg xmlns="http://www.w3.org/2000/svg" viewBox="0 0 256 256" width="256" height="256" role="img" aria-label="SaaS-Bench">
  <rect width="256" height="256" fill="#0F766E"/>

  <!-- Browser window around a deployable SaaS workflow -->
  <g fill="none" stroke="#ffffff" stroke-width="5" stroke-linecap="round" stroke-linejoin="round">
    <rect x="42" y="42" width="172" height="118" rx="10"/>
    <line x1="42" y1="72" x2="214" y2="72"/>
    <circle cx="58" cy="57" r="3" fill="#ffffff" stroke="none"/>
    <circle cx="72" cy="57" r="3" fill="#ffffff" stroke="none"/>
    <circle cx="86" cy="57" r="3" fill="#ffffff" stroke="none"/>
  </g>

  <!-- Cross-application workflow nodes -->
  <g fill="#0F766E" stroke="#ffffff" stroke-width="4">
    <rect x="62" y="92" width="38" height="26" rx="6"/>
    <rect x="109" y="92" width="38" height="26" rx="6"/>
    <rect x="156" y="92" width="38" height="26" rx="6"/>
  </g>

  <g fill="none" stroke="#ffffff" stroke-width="3" stroke-linecap="round" stroke-linejoin="round">
    <path d="M100 105 H109"/>
    <path d="M147 105 H156"/>
    <polyline points="74,132 98,132 110,142 136,142 148,132 182,132"/>
    <polyline points="174,124 184,132 174,140"/>
  </g>

  <!-- Weighted verification checkpoints -->
  <g fill="#ffffff">
    <circle cx="82" cy="132" r="5"/>
    <circle cx="128" cy="142" r="5"/>
    <circle cx="184" cy="132" r="5"/>
    <path d="M76 105 l5 5 10 -13" fill="none" stroke="#ffffff" stroke-width="4" stroke-linecap="round" stroke-linejoin="round"/>
    <path d="M123 105 l5 5 10 -13" fill="none" stroke="#ffffff" stroke-width="4" stroke-linecap="round" stroke-linejoin="round"/>
    <path d="M170 105 l5 5 10 -13" fill="none" stroke="#ffffff" stroke-width="4" stroke-linecap="round" stroke-linejoin="round"/>
  </g>

  <text x="128" y="205" font-family="Inter, ui-sans-serif, system-ui, sans-serif"
        font-size="31" font-weight="700" fill="#ffffff" text-anchor="middle">SaaS-Bench</text>
</svg>
